<svg width="512" height="512" viewBox="0 0 512 512" xmlns="http://www.w3.org/2000/svg">
  <defs>
    <linearGradient id="gradient" x1="0%" y1="0%" x2="100%" y2="100%">
      <stop offset="0%" style="stop-color:#8E99A2;stop-opacity:1" />
      <stop offset="100%" style="stop-color:#A2978E;stop-opacity:1" />
    </linearGradient>
  </defs>
  
  <!-- Background circle -->
  <circle cx="256" cy="256" r="240" fill="url(#gradient)" stroke="#ffffff" stroke-width="8"/>
  
  <!-- Knowledge network visualization -->
  <!-- Central node -->
  <circle cx="256" cy="256" r="24" fill="#ffffff" opacity="0.9"/>
  
  <!-- Connected nodes -->
  <circle cx="180" cy="200" r="16" fill="#ffffff" opacity="0.8"/>
  <circle cx="332" cy="200" r="16" fill="#ffffff" opacity="0.8"/>
  <circle cx="180" cy="312" r="16" fill="#ffffff" opacity="0.8"/>
  <circle cx="332" cy="312" r="16" fill="#ffffff" opacity="0.8"/>
  
  <!-- Outer nodes -->
  <circle cx="140" cy="140" r="12" fill="#ffffff" opacity="0.7"/>
  <circle cx="372" cy="140" r="12" fill="#ffffff" opacity="0.7"/>
  <circle cx="140" cy="372" r="12" fill="#ffffff" opacity="0.7"/>
  <circle cx="372" cy="372" r="12" fill="#ffffff" opacity="0.7"/>
  
  <!-- Connection lines -->
  <line x1="256" y1="256" x2="180" y2="200" stroke="#ffffff" stroke-width="3" opacity="0.6"/>
  <line x1="256" y1="256" x2="332" y2="200" stroke="#ffffff" stroke-width="3" opacity="0.6"/>
  <line x1="256" y1="256" x2="180" y2="312" stroke="#ffffff" stroke-width="3" opacity="0.6"/>
  <line x1="256" y1="256" x2="332" y2="312" stroke="#ffffff" stroke-width="3" opacity="0.6"/>
  
  <line x1="180" y1="200" x2="140" y2="140" stroke="#ffffff" stroke-width="2" opacity="0.5"/>
  <line x1="332" y1="200" x2="372" y2="140" stroke="#ffffff" stroke-width="2" opacity="0.5"/>
  <line x1="180" y1="312" x2="140" y2="372" stroke="#ffffff" stroke-width="2" opacity="0.5"/>
  <line x1="332" y1="312" x2="372" y2="372" stroke="#ffffff" stroke-width="2" opacity="0.5"/>
  
  <!-- Arc symbol representing knowledge flow -->
  <path d="M 150 256 Q 256 150 362 256" stroke="#04f827" stroke-width="4" fill="none" opacity="0.8"/>
  <path d="M 150 256 Q 256 362 362 256" stroke="#04f827" stroke-width="4" fill="none" opacity="0.8"/>
  
  <!-- AI accent dots -->
  <circle cx="210" cy="170" r="3" fill="#04f827"/>
  <circle cx="302" cy="170" r="3" fill="#04f827"/>
  <circle cx="210" cy="342" r="3" fill="#04f827"/>
  <circle cx="302" cy="342" r="3" fill="#04f827"/>
</svg>